<?xml version="1.0" standalone="no"?>
<!DOCTYPE svg PUBLIC "-//W3C//DTD SVG 20010904//EN"
 "http://www.w3.org/TR/2001/REC-SVG-20010904/DTD/svg10.dtd">
<svg version="1.0" xmlns="http://www.w3.org/2000/svg"
 width="1400.000000pt" height="1400.000000pt" viewBox="0 0 1400.000000 1400.000000"
 preserveAspectRatio="xMidYMid meet">
<metadata>
Created by potrace 1.14, written by Peter Selinger 2001-2017
</metadata>
<g transform="translate(0.000000,1400.000000) scale(0.100000,-0.100000)"
fill="#000000" stroke="none">
<path d="M0 7000 l0 -7000 7000 0 7000 0 0 7000 0 7000 -7000 0 -7000 0 0
-7000z m6308 5083 c5 -16 74 -208 151 -428 78 -220 169 -474 201 -565 32 -91
88 -248 123 -350 36 -102 112 -318 170 -480 58 -162 149 -419 202 -570 54
-151 119 -336 145 -410 26 -74 104 -295 173 -490 69 -195 148 -418 175 -495
28 -77 92 -257 142 -400 50 -143 100 -280 110 -305 24 -59 187 -515 366 -1027
15 -45 32 -79 38 -76 5 3 6 1 3 -5 -4 -5 7 -50 24 -99 62 -179 108 -311 154
-438 26 -71 64 -179 85 -240 43 -122 66 -188 170 -480 39 -110 95 -270 125
-355 29 -85 83 -238 120 -340 36 -102 75 -210 85 -240 10 -30 48 -138 85 -240
36 -102 73 -205 82 -230 8 -25 35 -101 60 -170 25 -69 65 -181 89 -250 23 -69
67 -192 97 -275 30 -82 76 -212 102 -288 26 -75 51 -137 56 -137 5 0 5 -7 2
-17 -4 -10 -2 -14 4 -10 7 4 11 -2 11 -16 -1 -26 65 -213 70 -199 1 5 -9 40
-23 77 -14 37 -25 76 -25 86 0 11 -4 19 -10 19 -5 0 -7 7 -3 16 3 8 -4 28 -16
44 -12 17 -21 44 -21 65 0 20 -4 34 -9 31 -5 -4 -7 4 -4 15 4 15 0 27 -12 35
-13 10 -16 21 -11 44 3 18 2 29 -3 25 -9 -5 -13 7 -26 88 -3 20 -10 37 -15 37
-6 0 -10 9 -10 20 0 10 -9 43 -19 72 -11 29 -23 70 -27 91 -3 20 -10 39 -14
42 -5 3 -12 30 -16 61 -4 37 -9 51 -15 43 -6 -10 -9 -5 -9 16 0 20 -3 26 -9
17 -6 -11 -9 -10 -13 5 -3 10 -9 27 -14 38 -6 16 -3 15 14 -5 16 -19 20 -21
18 -7 -1 9 -8 23 -14 29 -16 16 -15 45 1 52 6 4 2 4 -11 2 -18 -4 -21 -2 -12
9 6 7 7 16 2 18 -10 7 -49 127 -137 432 -8 28 -26 87 -40 132 -14 45 -25 93
-25 107 0 13 -5 26 -11 28 -5 2 -11 20 -12 41 -1 20 -5 37 -9 37 -4 0 -14 26
-24 58 -9 31 -23 75 -30 97 -8 23 -14 50 -14 62 0 12 -4 23 -8 25 -5 2 -26 64
-47 138 -21 74 -53 181 -71 238 -19 56 -34 111 -34 123 0 11 -13 52 -30 91
-17 38 -30 80 -30 92 0 12 -4 26 -9 32 -8 7 -37 107 -70 239 -4 17 -15 44 -23
60 -8 17 -18 49 -22 73 -3 24 -18 75 -32 115 -25 70 -31 91 -54 190 -6 26 -16
47 -21 47 -5 0 -12 18 -15 40 -4 22 -10 40 -15 40 -5 0 -9 13 -9 28 0 16 -9
55 -20 88 -11 32 -20 68 -20 80 0 11 -4 24 -9 30 -16 15 -80 215 -74 230 2 7
-2 23 -11 36 -19 26 -21 42 -4 32 7 -4 8 -3 4 5 -4 6 -12 9 -17 6 -5 -4 -9 1
-9 9 0 9 -4 16 -9 16 -5 0 -11 18 -15 40 -3 22 -11 40 -16 40 -6 0 -10 16 -10
35 0 22 -6 38 -15 41 -9 4 -15 19 -15 38 0 17 -7 40 -15 50 -8 11 -15 32 -15
48 0 15 -5 28 -11 28 -8 0 -9 13 -5 40 3 22 3 40 -1 39 -25 -4 -33 4 -33 36 0
18 -6 38 -13 42 -14 9 -37 89 -37 129 0 16 -7 28 -18 30 -13 4 -23 31 -42 107
-13 56 -32 111 -42 121 -10 11 -18 28 -18 38 0 9 -9 40 -20 68 -11 28 -20 61
-20 74 0 13 -6 26 -13 29 -15 5 -56 138 -58 184 -1 28 -1 28 -8 3 -7 -24 -9
-23 -19 15 -15 58 -27 127 -24 148 1 9 -5 17 -12 17 -8 0 -16 -8 -19 -17 -14
-64 -18 441 -15 2127 l3 1915 998 3 997 2 0 -5111 0 -5111 -37 6 c-372 57
-1244 132 -1889 162 l-141 7 -25 76 c-14 42 -62 177 -106 301 -44 124 -187
527 -317 895 -130 369 -286 810 -347 980 -60 171 -138 391 -173 490 -144 411
-577 1628 -614 1725 -37 100 -95 260 -218 610 -54 155 -77 220 -173 490 -29
80 -72 204 -96 275 -25 72 -53 153 -64 180 -10 28 -57 158 -104 290 -46 132
-112 317 -145 411 -34 95 -61 175 -61 179 0 4 -6 21 -14 38 -7 18 -35 93 -61
167 -26 74 -51 144 -55 155 -5 11 -43 119 -85 240 -121 346 -189 539 -243 690
-28 77 -58 163 -67 190 -9 28 -38 109 -65 181 -27 72 -61 168 -76 215 -26 78
-28 82 -36 54 -8 -30 14 -139 33 -161 5 -6 6 -13 4 -16 -3 -3 6 -39 20 -80 14
-40 32 -103 39 -138 8 -36 15 -54 16 -40 2 21 4 19 10 -10 4 -19 17 -72 29
-117 12 -46 19 -88 16 -94 -4 -6 3 -18 15 -26 14 -10 20 -22 17 -35 -4 -15 -1
-18 16 -14 12 3 16 3 10 0 -17 -7 -16 -35 1 -81 8 -21 20 -65 27 -98 7 -33 16
-62 20 -65 5 -3 9 -22 11 -43 1 -20 5 -37 9 -37 4 0 10 -17 14 -37 4 -21 13
-51 20 -68 7 -16 16 -41 20 -55 8 -34 53 -180 80 -265 13 -38 31 -99 41 -135
9 -36 21 -69 26 -74 4 -6 8 -25 8 -44 0 -18 7 -40 15 -48 8 -9 15 -24 15 -34
0 -26 28 -130 38 -144 5 -6 15 -39 22 -73 7 -35 17 -63 21 -63 5 0 9 -11 9
-25 0 -15 6 -38 14 -53 8 -15 19 -50 24 -77 6 -28 15 -63 20 -80 19 -54 42
-137 42 -151 0 -8 4 -14 8 -14 5 0 21 -53 37 -117 16 -65 32 -120 36 -123 3
-3 9 -27 14 -55 4 -27 13 -57 20 -65 8 -9 19 -37 25 -64 6 -26 17 -55 26 -63
8 -9 14 -29 12 -49 -1 -23 5 -41 21 -58 16 -17 21 -31 16 -46 -4 -11 -2 -26 3
-33 5 -7 15 -37 22 -67 7 -30 22 -77 35 -105 13 -27 28 -71 35 -97 7 -27 17
-48 21 -48 5 0 9 -18 9 -39 0 -23 5 -41 13 -44 15 -5 57 -140 57 -181 0 -16 6
-26 15 -26 8 0 15 -8 15 -19 0 -10 11 -49 25 -86 13 -38 26 -84 27 -102 1 -19
8 -33 15 -33 15 0 36 -70 37 -123 0 -21 2 -34 4 -28 7 22 32 -18 32 -52 0 -21
6 -37 14 -40 8 -3 18 -22 22 -41 3 -20 9 -36 13 -36 8 0 31 -96 31 -128 0 -12
7 -25 15 -28 9 -4 15 -19 15 -40 0 -18 6 -37 13 -41 8 -4 17 -23 21 -42 3 -19
17 -57 30 -85 14 -28 33 -85 43 -126 l18 -75 6 85 5 85 3 -115 c3 -81 6 -105
11 -80 6 27 8 12 11 -60 3 -75 4 -58 9 85 3 99 7 -746 8 -1877 l2 -2058 -32 0
c-48 0 -681 -38 -833 -50 -197 -15 -521 -47 -808 -80 -142 -17 -274 -30 -293
-30 l-34 0 0 5105 0 5105 1004 0 1004 0 10 -27z m-1568 -1287 c0 -3 -4 -8 -10
-11 -5 -3 -10 -1 -10 4 0 6 5 11 10 11 6 0 10 -2 10 -4z m17 -88 c-3 -8 -6 -5
-6 6 -1 11 2 17 5 13 3 -3 4 -12 1 -19z m10 -50 c-3 -7 -5 -2 -5 12 0 14 2 19
5 13 2 -7 2 -19 0 -25z m53 -141 c0 -5 -4 -5 -10 -2 -5 3 -10 14 -10 23 0 15
2 15 10 2 5 -8 10 -19 10 -23z m27 -79 c-3 -8 -6 -5 -6 6 -1 11 2 17 5 13 3
-3 4 -12 1 -19z m50 -160 c-3 -8 -6 -5 -6 6 -1 11 2 17 5 13 3 -3 4 -12 1 -19z
m-7 -44 c0 -8 -5 -12 -10 -9 -6 4 -8 11 -5 16 9 14 15 11 15 -7z m1397 -3866
c-3 -8 -6 -5 -6 6 -1 11 2 17 5 13 3 -3 4 -12 1 -19z m2750 -1720 c-3 -8 -6
-5 -6 6 -1 11 2 17 5 13 3 -3 4 -12 1 -19z m3 -28 c0 -5 -5 -10 -11 -10 -5 0
-7 5 -4 10 3 6 8 10 11 10 2 0 4 -4 4 -10z m297 -982 c-3 -8 -6 -5 -6 6 -1 11
2 17 5 13 3 -3 4 -12 1 -19z m130 -400 c-3 -8 -6 -5 -6 6 -1 11 2 17 5 13 3
-3 4 -12 1 -19z m90 -250 c-3 -8 -6 -5 -6 6 -1 11 2 17 5 13 3 -3 4 -12 1 -19z"/>
<path d="M4395 11760 c3 -5 8 -10 11 -10 2 0 4 5 4 10 0 6 -5 10 -11 10 -5 0
-7 -4 -4 -10z"/>
<path d="M4501 11470 c1 -24 15 -55 21 -44 2 5 -1 20 -8 34 -8 14 -13 18 -13
10z"/>
<path d="M4530 11391 c0 -11 4 -22 9 -25 4 -3 6 6 3 19 -5 30 -12 33 -12 6z"/>
<path d="M4540 11332 c0 -4 5 -13 11 -19 11 -11 17 -34 18 -70 1 -12 8 -28 16
-37 16 -16 20 -31 6 -22 -4 3 -6 -6 -3 -19 2 -14 9 -22 15 -18 5 3 7 1 4 -4
-11 -17 25 -103 43 -103 11 0 12 -3 3 -8 -7 -4 -11 -26 -10 -49 0 -23 3 -40 6
-38 4 4 10 48 13 85 1 22 -105 310 -114 310 -4 0 -8 -4 -8 -8z"/>
<path d="M4668 11004 c-9 -15 0 -106 11 -117 8 -8 11 -7 11 4 0 7 3 24 6 37 5
17 2 22 -12 22 -14 0 -15 3 -6 8 9 6 10 16 4 32 -5 13 -11 19 -14 14z"/>
<path d="M4721 10674 c0 -11 3 -14 6 -6 3 7 2 16 -1 19 -3 4 -6 -2 -5 -13z"/>
<path d="M5840 7073 c0 -4 5 -15 10 -23 8 -13 10 -13 10 2 0 9 -4 20 -10 23
-5 3 -10 3 -10 -2z"/>
<path d="M6272 5700 c0 -14 2 -19 5 -12 2 6 2 18 0 25 -3 6 -5 1 -5 -13z"/>
<path d="M9511 3184 c0 -11 3 -14 6 -6 3 7 2 16 -1 19 -3 4 -6 -2 -5 -13z"/>
</g>
</svg>
